<svg width="10" height="10" viewBox="0 0 50 54" fill="none" xmlns="http://www.w3.org/2000/svg">
<path d="M29.4115 17.1516C33.389 17.1516 36.8425 19.5174 38.749 23.002L49.987 23.016V16.4383C49.987 13.9905 48.1635 12.0049 45.9265 12.0049H4.048C1.804 12.0049 0 13.9905 0 16.4383L0.0115 22.9604L20.0675 22.975C21.9875 19.5028 25.427 17.1516 29.4115 17.1516Z" fill="black"/>
<path d="M10.503 9.9165H6.77755L6.34705 11.3826H10.8125L10.503 9.9165Z" fill="black"/>
<path d="M44.0955 9.13452H39.135L38.255 11.396H44.9L44.0955 9.13452Z" fill="black"/>
<path d="M27.0686 10.6153H22.7991V8.36022H27.0686V10.6153ZM30.9826 7.4541H18.9276L16.4441 11.4242H33.2566L30.9826 7.4541Z" fill="black"/>
<path d="M39.3315 24.178C39.953 25.6721 40.32 27.317 40.32 29.0677C40.32 35.6449 35.435 40.9838 29.412 40.9838C23.381 40.9838 18.4975 35.6443 18.4975 29.0677C18.4975 27.317 18.859 25.6721 19.4855 24.1704H0V42.1265C0 44.5603 1.804 46.5458 4.048 46.5458H45.926C48.163 46.5458 49.9865 44.5603 49.9865 42.1265L50 24.178H39.3315Z" fill="black"/>
<path d="M35.36 25.1526C35.189 24.8205 34.9735 24.509 34.739 24.2125C33.4655 22.5385 31.5595 21.438 29.412 21.438C27.2575 21.438 25.3515 22.532 24.078 24.1985C23.844 24.5025 23.628 24.8141 23.4445 25.1526C22.8055 26.3012 22.4185 27.6285 22.4185 29.0676C22.4185 33.2732 25.5485 36.6892 29.412 36.6892C33.2565 36.6892 36.387 33.2732 36.387 29.0676C36.3865 27.6291 36.0065 26.3018 35.36 25.1526Z" fill="black"/>
</svg>
