<svg width="51" height="74" viewBox="0 0 51 74" fill="none" xmlns="http://www.w3.org/2000/svg">
<g clip-path="url(#clip0)">
<path d="M38.5216 27.1304C38.0689 25.819 37.5047 24.5691 36.8383 23.4012L35.7678 25.1197C35.9046 25.21 36.0189 25.3436 36.0988 25.5064C37.8092 28.9469 38.5512 32.975 38.2117 36.9775C38.1889 37.2469 38.0913 37.4987 37.935 37.6909C37.7786 37.8832 37.5731 38.0044 37.3525 38.0344C36.9262 38.1472 36.4827 38.1145 36.0706 37.9399L34.4648 36.7197C34.3486 36.6323 34.2518 36.5113 34.1831 36.3674C33.8732 35.723 33.1266 34.6489 33.3097 33.8928C33.3942 33.5319 33.4858 33.171 33.5703 32.8101C33.6547 32.2087 33.5408 31.5909 33.2534 31.0916C33.1266 30.8252 32.5491 30.344 32.4012 30.5588C32.2387 30.8276 32.0264 31.0457 31.7815 31.195C31.5367 31.3444 31.2663 31.4208 30.9926 31.4181V31.4181C30.7187 31.4215 30.4481 31.3454 30.2032 31.196C29.9583 31.0466 29.746 30.8282 29.5839 30.5588C29.0627 29.6996 28.0415 27.9811 26.9569 26.2626L25.2102 23.2637L25.0271 23.3411C24.1115 23.7363 22.9141 23.8309 22.2098 24.6386C21.914 24.9651 22.0549 27.6631 21.6041 28.024C21.3647 28.2131 20.273 27.2335 19.9701 27.0703C19.3862 26.6492 18.7186 26.4322 18.0403 26.443C17.7023 26.5289 17.498 27.8951 17.3994 28.2303C17.2824 28.5905 17.2521 28.9839 17.312 29.3644C17.3718 29.7449 17.5195 30.0967 17.7375 30.3784C18.1319 30.8768 19.5123 30.894 19.4982 31.7704C19.4842 32.6468 17.7516 33.0593 17.3078 32.6297C16.782 32.0801 16.3387 31.423 15.9978 30.6877C15.7372 30.1808 15.4344 28.9692 14.8146 28.9692C14.6456 28.9692 14.0751 29.2871 13.9835 28.9692C13.7933 28.3849 13.6877 27.7663 13.4834 27.1906C13.1276 26.567 12.6695 26.0403 12.1382 25.6439C11.9475 25.4842 11.7866 25.2772 11.6661 25.0363C11.5456 24.7955 11.4681 24.5263 11.4389 24.2464C11.4096 23.9665 11.4292 23.6822 11.4963 23.4121C11.5634 23.1421 11.6766 22.8924 11.8283 22.6794C13.1638 20.8842 14.774 19.4248 16.5683 18.3832C16.843 18.3832 18.4206 20.1017 18.5967 19.8869C18.8925 19.5689 19.3996 18.6581 19.8715 18.9417C20.3434 19.2252 20.2166 20.222 20.1462 20.7203C20.0969 21.0726 20.8505 22.731 21.2238 22.688C21.493 22.6178 21.7442 22.4683 21.9553 22.2527C22.1664 22.037 22.3312 21.7617 22.4352 21.4507C22.6042 21.0984 23.2029 20.9867 23.7804 20.9437C22.6172 19.1092 21.7453 17.0255 21.2097 14.8C17.7183 15.2867 14.4411 17.102 11.8427 19.9884C9.24438 22.8749 7.45678 26.686 6.7334 30.8814C6.01002 35.0768 6.38757 39.4436 7.81252 43.3626C9.23747 47.2815 11.6375 50.5538 14.6723 52.7153C17.7071 54.8768 21.2226 55.8179 24.7204 55.4052C28.2182 54.9925 31.5208 53.2468 34.1597 50.4158C36.7987 47.5847 38.6402 43.812 39.4232 39.6325C40.2061 35.453 39.8906 31.0789 38.5216 27.1304V27.1304ZM31.1264 40.0193C30.7824 40.4334 30.4884 40.9049 30.253 41.4199C30.084 41.9698 30.1896 42.7603 29.922 43.2501C29.6544 43.7399 28.9712 43.4993 28.5134 43.7742C27.8091 44.2382 27.633 45.4498 27.471 46.352C27.4225 46.8746 27.301 47.3832 27.1118 47.8557C26.8935 48.2596 26.5202 48.1221 26.1962 48.2424C26.0022 48.3267 25.8377 48.4894 25.7301 48.7036C25.6225 48.9178 25.5782 49.1704 25.6046 49.4196C25.6046 49.9523 25.9356 50.4765 25.8018 51.0178C25.6398 51.688 24.8932 51.2756 24.5481 51.6021C24.4424 51.7017 24.36 51.8336 24.3093 51.9845C24.2586 52.1353 24.2414 52.2998 24.2594 52.4613C24.265 52.6068 24.2468 52.7521 24.2057 52.8888C24.1646 53.0255 24.1015 53.1508 24.0201 53.2573C23.9387 53.3638 23.8407 53.4494 23.7318 53.5089C23.6229 53.5685 23.5053 53.6009 23.386 53.6042H22.6817C22.5632 53.6013 22.4464 53.5686 22.3388 53.508C22.2311 53.4474 22.1349 53.3603 22.0562 53.2521C21.9775 53.144 21.9179 53.0172 21.8813 52.8796C21.8448 52.742 21.8319 52.5967 21.8436 52.4527V52.4527C21.9563 50.8545 22.7169 49.411 22.7169 47.7956C22.7269 47.4066 22.6693 47.0195 22.5479 46.6596C22.4265 46.2998 22.2441 45.9753 22.0126 45.7076C21.4997 45.3196 20.9682 44.9695 20.4209 44.6593C19.8747 44.1653 19.4784 43.4642 19.294 42.6658C19.0249 41.9854 18.9316 41.2213 19.0264 40.4747C19.3126 39.7691 19.53 39.0251 19.6743 38.2578C19.6902 37.2874 19.7631 36.3197 19.8927 35.3621C19.9892 35.0249 20.148 34.7193 20.3569 34.469C20.5657 34.2187 20.819 34.0304 21.097 33.9185C21.3068 33.8747 21.5225 33.9221 21.7066 34.0524C21.8906 34.1827 22.0313 34.3878 22.1042 34.6317C22.5338 35.6542 23.9354 34.1677 24.1255 33.9787C24.4495 33.6608 25.0904 34.056 25.3158 34.3654C25.5412 34.6747 26.7597 35.2246 27.0555 35.4996C27.3513 35.7745 27.4428 36.3588 27.6682 36.7283C28.2176 37.7165 29.3515 37.8196 30.2319 38.0086C30.6025 38.0335 30.9669 38.1352 31.3095 38.3094C31.8729 38.739 31.4151 39.5725 31.1334 40.0279L31.1264 40.0193Z" fill="black"/>
<path d="M43.9397 10.2953C43.6617 7.59905 42.5419 5.11457 40.7922 3.31208C39.0425 1.5096 36.7843 0.51416 34.4449 0.51416C32.1055 0.51416 29.8473 1.5096 28.0976 3.31208C26.3479 5.11457 25.2281 7.59905 24.9501 10.2953C24.7802 11.8034 24.8751 13.3357 25.229 14.8001C25.8616 17.0064 26.8276 19.0643 28.0819 20.8773L28.2492 21.1456L29.3808 22.9308C30.9745 25.4653 33.1659 28.8231 34.0425 30.2291C34.0903 30.2985 34.1509 30.3545 34.2199 30.393C34.2888 30.4316 34.3644 30.4515 34.4409 30.4515C34.5175 30.4515 34.593 30.4316 34.662 30.393C34.731 30.3545 34.7916 30.2985 34.8394 30.2291C36.5048 27.6483 38.242 25.0861 39.8756 22.4776C40.2103 21.9411 40.5397 21.4046 40.8637 20.8681C42.8719 17.5751 44.354 14.4393 43.9397 10.2953ZM29.0859 11.4886C29.1049 10.302 29.4157 9.14647 29.9816 8.15811C30.5475 7.16975 31.3451 6.38976 32.2802 5.91007C33.2154 5.43037 34.2492 5.27094 35.2598 5.45059C36.2704 5.63023 37.2157 6.14145 37.9843 6.92401C38.7529 7.70656 39.3128 8.72784 39.598 9.8675C39.8832 11.0072 39.8819 12.2177 39.5941 13.3565C39.3063 14.4953 38.744 15.5148 37.9736 16.295C37.2032 17.0752 36.2568 17.5835 35.2458 17.7601C35.0162 17.7995 34.7846 17.8211 34.5525 17.8248C33.8321 17.8399 33.1165 17.6863 32.4483 17.3732C31.7802 17.0601 31.1733 16.5939 30.6638 16.0025C30.1543 15.4111 29.7527 14.7066 29.483 13.9311C29.2133 13.1555 29.0809 12.3248 29.0939 11.4886H29.0859Z" fill="black"/>
</g>
<defs>
<clipPath id="clip0">
<rect width="51" height="74" fill="white"/>
</clipPath>
</defs>
</svg>
