<svg width="68" height="79" viewBox="0 0 68 79" fill="none" xmlns="http://www.w3.org/2000/svg">
<path d="M52.4053 57.1591C57.0535 50.8865 59.5967 42.9821 59.5967 34.6196C59.5967 25.3722 56.4967 16.6795 50.8685 10.1401C45.2412 3.60152 37.7581 0 29.7984 0C21.8386 0 14.3563 3.60152 8.72818 10.1401C3.10004 16.6787 0 25.3713 0 34.6187C0 43.8652 3.10004 52.5587 8.72818 59.0973C14.3563 65.6358 21.8393 69.2374 29.7991 69.2374C36.9973 69.2374 43.8018 66.2828 49.2003 60.8827L64.1308 78.2284C64.5736 78.7428 65.1531 79 65.7333 79C66.3136 79 66.8931 78.7428 67.3359 78.2284C68.2214 77.2006 68.2214 75.5328 67.3359 74.5049L52.4053 57.1591ZM47.6635 55.3737C42.8921 60.9169 36.547 63.9707 29.7984 63.9707C23.0497 63.9707 16.7053 60.9169 11.9325 55.3737C7.16191 49.8306 4.53333 42.459 4.53333 34.6187C4.53333 26.7784 7.16191 19.4077 11.9332 13.8627C16.7053 8.32045 23.0505 5.26667 29.7984 5.26667C36.5462 5.26667 42.8914 8.32046 47.6635 13.8636C52.4348 19.4077 55.0634 26.7792 55.0634 34.6196C55.0634 42.4599 52.4348 49.8306 47.6635 55.3737Z" fill="black"/>
</svg>
