<svg width="22" height="32" viewBox="0 0 22 32" fill="none" xmlns="http://www.w3.org/2000/svg">
<path d="M17.307 24.804C16.646 24.857 15.888 24.9 15.029 24.932L15.696 26H6.30398L6.97198 24.932C6.11298 24.9 5.35498 24.857 4.69398 24.804L1.15198 30.47C0.858982 30.939 1.00198 31.556 1.46898 31.848C1.63498 31.951 1.81798 32 1.99898 32C2.33198 32 2.65798 31.834 2.84798 31.53L3.17898 31H18.822L19.153 31.53C19.342 31.834 19.669 32 20.002 32C20.183 32 20.366 31.951 20.531 31.848C20.999 31.556 21.141 30.939 20.848 30.47L17.307 24.804ZM4.42898 29L5.05398 28H16.947L17.572 29H4.42898Z" fill="black"/>
<path d="M21 1C20 0 16.522 0 11 0C5.478 0 2 0 1 1C0 2 0 5.925 0 12C0 16.866 0.000999987 20.349 0.516 22.057C0.644 22.481 0.801 22.801 1 23C1.104 23.104 1.238 23.193 1.394 23.275C2.744 23.998 6.046 24 11 24C15.954 24 19.256 23.998 20.606 23.275C20.762 23.193 20.897 23.104 21 23C21.199 22.801 21.356 22.481 21.484 22.057C21.999 20.349 22 16.866 22 12C22 5.925 22 2 21 1ZM5.5 20C4.119 20 3 18.881 3 17.5C3 16.119 4.119 15 5.5 15C6.881 15 8 16.119 8 17.5C8 18.881 6.881 20 5.5 20ZM16.5 20C15.119 20 14 18.881 14 17.5C14 16.119 15.119 15 16.5 15C17.881 15 19 16.119 19 17.5C19 18.881 17.881 20 16.5 20ZM19 12C18 13 15.418 13 11 13C6.582 13 4 13 3 12C2 11 2 9.985 2 7.5C2 5.015 2 4 3 3C4 2 6.582 2 11 2C15.418 2 18 2 19 3C20 4 20 5.015 20 7.5C20 9.985 20 11 19 12Z" fill="black"/>
<path d="M16.5 19C17.3284 19 18 18.3284 18 17.5C18 16.6716 17.3284 16 16.5 16C15.6716 16 15 16.6716 15 17.5C15 18.3284 15.6716 19 16.5 19Z" fill="black"/>
<path d="M5.5 19C6.32843 19 7 18.3284 7 17.5C7 16.6716 6.32843 16 5.5 16C4.67157 16 4 16.6716 4 17.5C4 18.3284 4.67157 19 5.5 19Z" fill="black"/>
</svg>
